<svg xmlns="http://www.w3.org/2000/svg" width="1587" height="1123" viewBox="0 0 1587 1123" font-family="'Inter', 'Segoe UI', Arial, sans-serif">
  <defs>
    <linearGradient id="coverGrad" x1="0%" y1="0%" x2="100%" y2="0%">
      <stop offset="0%" stop-color="#0d2b27"/>
      <stop offset="100%" stop-color="#134e4a"/>
    </linearGradient>
    <filter id="cardShadow" x="-5%" y="-5%" width="115%" height="125%">
      <feDropShadow dx="0" dy="2" stdDeviation="5" flood-color="#0d2b27" flood-opacity="0.12"/>
    </filter>
    <!-- Dot grid pattern -->
    <pattern id="dotGrid" x="0" y="0" width="28" height="28" patternUnits="userSpaceOnUse">
      <circle cx="2" cy="2" r="1.5" fill="#5eead4" opacity="0.12"/>
    </pattern>
  </defs>

  <!-- ══════════════════════════════════════════
       LEFT PANEL — COVER (0 to 793)
  ══════════════════════════════════════════ -->
  <rect x="0" y="0" width="793" height="1123" fill="url(#coverGrad)"/>

  <!-- Dot grid overlay -->
  <rect x="0" y="0" width="793" height="1123" fill="url(#dotGrid)"/>

  <!-- Decorative circles -->
  <circle cx="700" cy="200" r="250" stroke="#5eead4" stroke-width="1.5" opacity="0.08" fill="none"/>
  <circle cx="700" cy="200" r="180" stroke="#5eead4" stroke-width="1" opacity="0.05" fill="none"/>
  <circle cx="120" cy="900" r="160" stroke="#5eead4" stroke-width="1" opacity="0.06" fill="none"/>
  <circle cx="50" cy="300" r="90" stroke="#5eead4" stroke-width="1" opacity="0.05" fill="none"/>

  <!-- ─── H Logomark 140x140, centered at x=396 y=250 (box starts x=326 y=180) ─── -->
  <!-- Left stem (scaled up ~1.4x from flyer) -->
  <rect x="326" y="196" width="20" height="98" fill="white" rx="3"/>
  <!-- Right stem -->
  <rect x="374" y="196" width="20" height="98" fill="white" rx="3"/>
  <!-- Cyan arc (smile) -->
  <path d="M 336,247 Q 361,273 386,247" stroke="#5eead4" stroke-width="8" fill="none" stroke-linecap="round"/>

  <!-- "Harmoni" -->
  <text x="396" y="420" font-size="82" font-weight="900" fill="white" text-anchor="middle">Harmoni</text>

  <!-- Cyan underline rect -->
  <rect x="296" y="432" width="200" height="5" fill="#5eead4" rx="2"/>

  <!-- "ERP de RRHH & Planillas" -->
  <text x="396" y="480" font-size="26" fill="#5eead4" text-anchor="middle" font-weight="500">ERP de RRHH &amp; Planillas</text>

  <!-- Tagline italic -->
  <text x="396" y="530" font-size="20" fill="rgba(255,255,255,0.75)" text-anchor="middle" font-style="italic">Gestión de personas, en armonía</text>

  <!-- Feature pills row at y=650 -->
  <!-- Pill 1: Nóminas -->
  <rect x="70" y="628" width="130" height="36" fill="#0f766e" rx="18"/>
  <text x="135" y="652" font-size="15" fill="white" text-anchor="middle" font-weight="500">Nóminas</text>

  <!-- Pill 2: Asistencia -->
  <rect x="216" y="628" width="130" height="36" fill="#0f766e" rx="18"/>
  <text x="281" y="652" font-size="15" fill="white" text-anchor="middle" font-weight="500">Asistencia</text>

  <!-- Pill 3: Portal -->
  <rect x="362" y="628" width="130" height="36" fill="#0f766e" rx="18"/>
  <text x="427" y="652" font-size="15" fill="white" text-anchor="middle" font-weight="500">Portal</text>

  <!-- Pill 4: IA -->
  <rect x="508" y="628" width="130" height="36" fill="#0f766e" rx="18"/>
  <text x="573" y="652" font-size="15" fill="white" text-anchor="middle" font-weight="500">IA</text>

  <!-- "Para empresas peruanas" -->
  <text x="396" y="720" font-size="16" fill="rgba(255,255,255,0.5)" text-anchor="middle">Para empresas peruanas</text>

  <!-- Bottom website -->
  <text x="396" y="1070" font-size="18" fill="white" text-anchor="middle" font-weight="600" opacity="0.85">harmoni.pe</text>

  <!-- Vertical divider -->
  <line x1="793" y1="0" x2="793" y2="1123" stroke="#5eead4" stroke-width="1.5" opacity="0.3"/>

  <!-- ══════════════════════════════════════════
       RIGHT PANEL — CONTENT (793 to 1587)
  ══════════════════════════════════════════ -->
  <rect x="793" y="0" width="794" height="1123" fill="#f8fffe"/>

  <!-- Top accent bar -->
  <rect x="793" y="0" width="794" height="8" fill="#5eead4"/>

  <!-- Section heading -->
  <text x="850" y="68" font-size="36" font-weight="700" fill="#0d2b27">Módulos Principales</text>
  <rect x="850" y="82" width="220" height="4" fill="#5eead4" rx="2"/>

  <!-- ─── Module items (2 cols: x=850, x=1200 — 4 rows, starting y=130, spacing 110px) ─── -->

  <!-- Row 1, Col 1: Personal & Organigrama -->
  <circle cx="873" cy="155" r="20" fill="#5eead4"/>
  <!-- icon: person silhouette -->
  <circle cx="873" cy="148" r="5" fill="#0d2b27"/>
  <path d="M 864,166 Q 864,159 873,159 Q 882,159 882,166" fill="#0d2b27"/>
  <text x="903" y="151" font-size="18" font-weight="700" fill="#0d2b27">Personal &amp; Organigrama</text>
  <text x="903" y="170" font-size="14" fill="#666666">Fichas, áreas, cargos</text>

  <!-- Row 1, Col 2: Nóminas & Planillas -->
  <circle cx="1223" cy="155" r="20" fill="#5eead4"/>
  <!-- icon: document with lines -->
  <rect x="1215" y="146" width="16" height="3" fill="#0d2b27" rx="1"/>
  <rect x="1215" y="153" width="16" height="3" fill="#0d2b27" rx="1"/>
  <rect x="1215" y="160" width="10" height="3" fill="#0d2b27" rx="1"/>
  <text x="1253" y="151" font-size="18" font-weight="700" fill="#0d2b27">Nóminas &amp; Planillas</text>
  <text x="1253" y="170" font-size="14" fill="#666666">Cálculo automático legal</text>

  <!-- Row 2, Col 1: Control de Asistencia -->
  <circle cx="873" cy="265" r="20" fill="#5eead4"/>
  <circle cx="873" cy="265" r="8" fill="none" stroke="#0d2b27" stroke-width="2"/>
  <line x1="873" y1="260" x2="873" y2="265" stroke="#0d2b27" stroke-width="1.8" stroke-linecap="round"/>
  <line x1="873" y1="265" x2="877" y2="269" stroke="#0d2b27" stroke-width="1.8" stroke-linecap="round"/>
  <text x="903" y="261" font-size="18" font-weight="700" fill="#0d2b27">Control de Asistencia</text>
  <text x="903" y="280" font-size="14" fill="#666666">Biométrico + IA</text>

  <!-- Row 2, Col 2: Portal Colaborador -->
  <circle cx="1223" cy="265" r="20" fill="#5eead4"/>
  <circle cx="1223" cy="258" r="5" fill="#0d2b27"/>
  <path d="M 1214,276 Q 1214,269 1223,269 Q 1232,269 1232,276" fill="#0d2b27"/>
  <text x="1253" y="261" font-size="18" font-weight="700" fill="#0d2b27">Portal Colaborador</text>
  <text x="1253" y="280" font-size="14" fill="#666666">Autoservicio 24/7</text>

  <!-- Row 3, Col 1: Vacaciones & Descansos -->
  <circle cx="873" cy="375" r="20" fill="#5eead4"/>
  <!-- icon: calendar -->
  <rect x="864" y="367" width="18" height="16" fill="none" stroke="#0d2b27" stroke-width="2" rx="2"/>
  <line x1="864" y1="373" x2="882" y2="373" stroke="#0d2b27" stroke-width="2"/>
  <line x1="869" y1="364" x2="869" y2="369" stroke="#0d2b27" stroke-width="2" stroke-linecap="round"/>
  <line x1="877" y1="364" x2="877" y2="369" stroke="#0d2b27" stroke-width="2" stroke-linecap="round"/>
  <text x="903" y="371" font-size="18" font-weight="700" fill="#0d2b27">Vacaciones &amp; Descansos</text>
  <text x="903" y="390" font-size="14" fill="#666666">Solicitudes en línea</text>

  <!-- Row 3, Col 2: Documentos & Contratos -->
  <circle cx="1223" cy="375" r="20" fill="#5eead4"/>
  <rect x="1214" y="366" width="18" height="22" fill="none" stroke="#0d2b27" stroke-width="2" rx="2"/>
  <line x1="1217" y1="373" x2="1229" y2="373" stroke="#0d2b27" stroke-width="1.8" stroke-linecap="round"/>
  <line x1="1217" y1="379" x2="1229" y2="379" stroke="#0d2b27" stroke-width="1.8" stroke-linecap="round"/>
  <text x="1253" y="371" font-size="18" font-weight="700" fill="#0d2b27">Documentos &amp; Contratos</text>
  <text x="1253" y="390" font-size="14" fill="#666666">Legajo digital completo</text>

  <!-- Row 4, Col 1: Reportes & Analytics -->
  <circle cx="873" cy="485" r="20" fill="#5eead4"/>
  <!-- icon: bar chart -->
  <rect x="864" y="478" width="5" height="12" fill="#0d2b27" rx="1"/>
  <rect x="871" y="474" width="5" height="16" fill="#0d2b27" rx="1"/>
  <rect x="878" y="481" width="5" height="9" fill="#0d2b27" rx="1"/>
  <text x="903" y="481" font-size="18" font-weight="700" fill="#0d2b27">Reportes &amp; Analytics</text>
  <text x="903" y="500" font-size="14" fill="#666666">KPIs en tiempo real</text>

  <!-- Row 4, Col 2: IA Asistente -->
  <circle cx="1223" cy="485" r="20" fill="#5eead4"/>
  <!-- icon: sparkle -->
  <polygon points="1223,472 1225,480 1233,482 1225,484 1223,492 1221,484 1213,482 1221,480" fill="#0d2b27"/>
  <text x="1253" y="481" font-size="18" font-weight="700" fill="#0d2b27">IA Asistente</text>
  <text x="1253" y="500" font-size="14" fill="#666666">Chat inteligente RRHH</text>

  <!-- ─── Horizontal rule separator ─── -->
  <line x1="850" y1="840" x2="1550" y2="840" stroke="#5eead4" stroke-width="1" opacity="0.4"/>

  <!-- Subtle "Normativa peruana" note -->
  <text x="850" y="620" font-size="15" fill="#0d2b27" font-weight="600">Cumplimiento normativo peruano</text>
  <text x="850" y="642" font-size="13" fill="#666666">AFP (10%) · ONP (13%) · EsSalud (9%) · IR 5ta categoría</text>
  <text x="850" y="660" font-size="13" fill="#666666">Gratificaciones · CTS · RMV S/ 1,130 · UIT S/ 5,500</text>

  <!-- Technology stack note -->
  <text x="850" y="705" font-size="15" fill="#0d2b27" font-weight="600">Stack tecnológico</text>
  <text x="850" y="727" font-size="13" fill="#666666">Django 5.1 · PostgreSQL · Redis · Celery · Docker · PWA</text>
  <text x="850" y="745" font-size="13" fill="#666666">API REST · JWT · Multi-proveedor IA · Exportación Excel/PDF</text>

  <!-- ─── CTA Box at bottom ─── -->
  <rect x="793" y="858" width="794" height="265" fill="#134e4a"/>

  <!-- Decorative accent lines -->
  <line x1="793" y1="858" x2="1587" y2="858" stroke="#5eead4" stroke-width="3"/>

  <text x="1190" y="922" font-size="32" font-weight="700" fill="white" text-anchor="middle">Comienza hoy mismo</text>
  <text x="1190" y="962" font-size="18" fill="#5eead4" text-anchor="middle">Demo gratuita · Sin tarjeta · Sin compromiso</text>

  <!-- White CTA button: 280x56 rx=28 centered (x=1190 center → left=1051) -->
  <rect x="1050" y="984" width="280" height="56" fill="white" rx="28"/>
  <text x="1190" y="1019" font-size="19" font-weight="700" fill="#0d2b27" text-anchor="middle">harmoni.pe →</text>

  <text x="1190" y="1080" font-size="15" fill="white" text-anchor="middle" opacity="0.6">Lima, Perú  ·  contacto@harmoni.pe</text>
</svg>
