<svg xmlns="http://www.w3.org/2000/svg" width="794" height="1123" viewBox="0 0 794 1123" font-family="'Inter', 'Segoe UI', Arial, sans-serif">
  <defs>
    <linearGradient id="headerGrad" x1="0%" y1="0%" x2="100%" y2="0%">
      <stop offset="0%" stop-color="#0d2b27"/>
      <stop offset="100%" stop-color="#134e4a"/>
    </linearGradient>
    <filter id="boxShadow" x="-5%" y="-5%" width="110%" height="120%">
      <feDropShadow dx="0" dy="3" stdDeviation="6" flood-color="#0d2b27" flood-opacity="0.10"/>
    </filter>
  </defs>

  <!-- ═══════════════ HEADER ═══════════════ -->
  <rect x="0" y="0" width="794" height="320" fill="url(#headerGrad)"/>

  <!-- Diagonal cut fill (light bg triangle) -->
  <polygon points="0,280 794,240 794,320 0,320" fill="#f0fdfa"/>

  <!-- H Logomark: centered at 397,92 (100x100 box starting at x=347 y=40) -->
  <!-- Left stem -->
  <rect x="347" y="52" width="14" height="70" fill="white" rx="2"/>
  <!-- Right stem -->
  <rect x="375" y="52" width="14" height="70" fill="white" rx="2"/>
  <!-- Cyan arc (smile) -->
  <path d="M 354,90 Q 368,116 382,90" stroke="#5eead4" stroke-width="6" fill="none" stroke-linecap="round"/>

  <!-- "Harmoni" wordmark -->
  <text x="397" y="190" font-size="70" font-weight="700" fill="white" text-anchor="middle">Harmoni</text>

  <!-- Subtitle -->
  <text x="397" y="225" font-size="22" fill="#5eead4" text-anchor="middle" font-weight="500">ERP de RRHH &amp; Planillas</text>

  <!-- Small tagline above diagonal -->
  <text x="397" y="270" font-size="16" fill="rgba(255,255,255,0.7)" text-anchor="middle">Para empresas peruanas</text>

  <!-- ═══════════════ BODY ═══════════════ -->
  <rect x="0" y="320" width="794" height="760" fill="#f0fdfa"/>

  <!-- Section heading -->
  <text x="397" y="380" font-size="30" font-weight="700" fill="#0d2b27" text-anchor="middle">¿Por qué elegir Harmoni?</text>
  <rect x="247" y="392" width="300" height="3" fill="#5eead4" rx="2"/>

  <!-- ─── Feature Box 1 — Nóminas Automatizadas (left, row 1) ─── -->
  <rect x="40" y="420" width="340" height="120" fill="white" rx="12" filter="url(#boxShadow)"/>
  <circle cx="92" cy="480" r="24" fill="#5eead4"/>
  <!-- icon: document lines -->
  <rect x="84" y="471" width="16" height="3" fill="#0d2b27" rx="1"/>
  <rect x="84" y="478" width="16" height="3" fill="#0d2b27" rx="1"/>
  <rect x="84" y="485" width="10" height="3" fill="#0d2b27" rx="1"/>
  <text x="126" y="473" font-size="18" font-weight="700" fill="#0d2b27">Nóminas Automatizadas</text>
  <text x="126" y="495" font-size="14" fill="#666666">Cálculo automático: AFP, ONP, IR</text>

  <!-- ─── Feature Box 2 — Control de Asistencia (right, row 1) ─── -->
  <rect x="414" y="420" width="340" height="120" fill="white" rx="12" filter="url(#boxShadow)"/>
  <circle cx="466" cy="480" r="24" fill="#5eead4"/>
  <!-- icon: clock lines -->
  <circle cx="466" cy="480" r="10" fill="none" stroke="#0d2b27" stroke-width="2.5"/>
  <line x1="466" y1="474" x2="466" y2="480" stroke="#0d2b27" stroke-width="2" stroke-linecap="round"/>
  <line x1="466" y1="480" x2="470" y2="484" stroke="#0d2b27" stroke-width="2" stroke-linecap="round"/>
  <text x="500" y="473" font-size="18" font-weight="700" fill="#0d2b27">Control de Asistencia</text>
  <text x="500" y="495" font-size="14" fill="#666666">Tardanzas, horas extra, biométrico</text>

  <!-- ─── Feature Box 3 — Portal del Colaborador (left, row 2) ─── -->
  <rect x="40" y="560" width="340" height="120" fill="white" rx="12" filter="url(#boxShadow)"/>
  <circle cx="92" cy="620" r="24" fill="#5eead4"/>
  <!-- icon: person -->
  <circle cx="92" cy="613" r="6" fill="#0d2b27"/>
  <path d="M 80,630 Q 80,623 92,623 Q 104,623 104,630" fill="#0d2b27"/>
  <text x="126" y="613" font-size="18" font-weight="700" fill="#0d2b27">Portal del Colaborador</text>
  <text x="126" y="635" font-size="14" fill="#666666">Autoservicio para tus trabajadores</text>

  <!-- ─── Feature Box 4 — IA Integrada (right, row 2) ─── -->
  <rect x="414" y="560" width="340" height="120" fill="white" rx="12" filter="url(#boxShadow)"/>
  <circle cx="466" cy="620" r="24" fill="#5eead4"/>
  <!-- icon: sparkle/AI -->
  <polygon points="466,607 468,615 476,617 468,619 466,627 464,619 456,617 464,615" fill="#0d2b27"/>
  <text x="500" y="613" font-size="18" font-weight="700" fill="#0d2b27">IA Integrada</text>
  <text x="500" y="635" font-size="14" fill="#666666">Asistente IA para RRHH en tiempo real</text>

  <!-- ─── Feature Box 5 — Reportes & Analytics (left, row 3) ─── -->
  <rect x="40" y="700" width="340" height="120" fill="white" rx="12" filter="url(#boxShadow)"/>
  <circle cx="92" cy="760" r="24" fill="#5eead4"/>
  <!-- icon: bar chart -->
  <rect x="83" y="754" width="5" height="12" fill="#0d2b27" rx="1"/>
  <rect x="90" y="750" width="5" height="16" fill="#0d2b27" rx="1"/>
  <rect x="97" y="757" width="5" height="9" fill="#0d2b27" rx="1"/>
  <text x="126" y="753" font-size="18" font-weight="700" fill="#0d2b27">Reportes &amp; Analytics</text>
  <text x="126" y="775" font-size="14" fill="#666666">KPIs, dashboards, exportación Excel/PDF</text>

  <!-- ─── Feature Box 6 — Gestión Documental (right, row 3) ─── -->
  <rect x="414" y="700" width="340" height="120" fill="white" rx="12" filter="url(#boxShadow)"/>
  <circle cx="466" cy="760" r="24" fill="#5eead4"/>
  <!-- icon: folder -->
  <rect x="455" y="754" width="22" height="16" fill="#0d2b27" rx="2"/>
  <rect x="455" y="750" width="10" height="6" fill="#0d2b27" rx="1"/>
  <text x="500" y="753" font-size="18" font-weight="700" fill="#0d2b27">Gestión Documental</text>
  <text x="500" y="775" font-size="14" fill="#666666">Contratos, legajos, alertas vencimiento</text>

  <!-- ═══════════════ STATS STRIP ═══════════════ -->
  <rect x="0" y="840" width="794" height="120" fill="#134e4a"/>

  <!-- Stat 1 -->
  <text x="131" y="894" font-size="36" font-weight="700" fill="white" text-anchor="middle">500+</text>
  <text x="131" y="918" font-size="13" fill="#5eead4" text-anchor="middle">Trabajadores gestionados</text>

  <!-- Divider -->
  <line x1="264" y1="860" x2="264" y2="940" stroke="#5eead4" stroke-width="1" opacity="0.3"/>

  <!-- Stat 2 -->
  <text x="397" y="894" font-size="36" font-weight="700" fill="white" text-anchor="middle">99.9%</text>
  <text x="397" y="918" font-size="13" fill="#5eead4" text-anchor="middle">Uptime garantizado</text>

  <!-- Divider -->
  <line x1="530" y1="860" x2="530" y2="940" stroke="#5eead4" stroke-width="1" opacity="0.3"/>

  <!-- Stat 3 -->
  <text x="663" y="894" font-size="36" font-weight="700" fill="white" text-anchor="middle">5min</text>
  <text x="663" y="918" font-size="13" fill="#5eead4" text-anchor="middle">Setup inicial</text>

  <!-- ═══════════════ CTA SECTION ═══════════════ -->
  <rect x="0" y="960" width="794" height="120" fill="white"/>

  <text x="397" y="1000" font-size="26" font-weight="700" fill="#0d2b27" text-anchor="middle">¿Listo para optimizar tu RRHH?</text>
  <text x="397" y="1030" font-size="18" fill="#666666" text-anchor="middle">Solicita tu demo gratuita hoy</text>

  <!-- CTA Button -->
  <rect x="267" y="1046" width="260" height="52" fill="#5eead4" rx="26"/>
  <text x="397" y="1079" font-size="18" font-weight="700" fill="#0d2b27" text-anchor="middle">www.harmoni.pe →</text>

  <!-- ═══════════════ FOOTER ═══════════════ -->
  <rect x="0" y="1080" width="794" height="43" fill="#0d2b27"/>
  <text x="397" y="1106" font-size="13" fill="white" text-anchor="middle" opacity="0.85">harmoni.pe  ·  contacto@harmoni.pe  ·  Lima, Perú</text>
</svg>
